<?xml version="1.0" encoding="utf-8"?>
<!-- Generator: Adobe Illustrator 18.1.1, SVG Export Plug-In . SVG Version: 6.00 Build 0)  -->
<svg version="1.1" id="Camada_1" xmlns="http://www.w3.org/2000/svg" xmlns:xlink="http://www.w3.org/1999/xlink" x="0px" y="0px"
	 viewBox="0 0 280.4 137" enable-background="new 0 0 280.4 137" xml:space="preserve">
<g>
	<defs>
		<path id="SVGID_1_" d="M44.8,1.5c0,0-34-18.2-44.4,95.9H84C84,97.4,78.4-14.2,44.8,1.5L44.8,1.5z"/>
	</defs>
	<use xlink:href="#SVGID_1_"  overflow="visible" fill-rule="evenodd" clip-rule="evenodd" fill="#B65C23"/>
	<clipPath id="SVGID_2_">
		<use xlink:href="#SVGID_1_"  overflow="visible"/>
	</clipPath>
</g>
<g>
	<defs>
		<path id="SVGID_3_" d="M43.5,136.9c-22.3,1.4-35.3-10.5-35.3-10.5c-24.7-24.9,14.4-64.5,14.4-64.5c6.2-7.1,23.5-3.9,23.5-3.9
			L43.5,136.9L43.5,136.9z M78.6,126.2c0,0-14.7,12-40,10.6l-3-79.5c0,0,19.6-3.2,26.7,4C62.3,61.3,106.6,101.1,78.6,126.2
			L78.6,126.2z"/>
	</defs>
	<use xlink:href="#SVGID_3_"  overflow="visible" fill="#EBBEE0"/>
	<clipPath id="SVGID_4_">
		<use xlink:href="#SVGID_3_"  overflow="visible"/>
	</clipPath>
</g>
<g>
	<defs>
		<path id="SVGID_5_" d="M64.4,32.9l2.1-0.9c0.3,1.9,0.5,3.9,0.5,6.1c0,17.5-10.2,31.6-22.9,31.6c-12.6,0-22.9-14.1-22.9-31.6
			c0-2,0.1-3.9,0.4-5.6l0.9,0.4c10.9,0,18.3-15.1,20.3-19.7c0.2,0,0.4,0,0.6,0c0.6,0,1.2,0,1.8,0.1C47,17.9,53.5,32.9,64.4,32.9
			L64.4,32.9z"/>
	</defs>
	<use xlink:href="#SVGID_5_"  overflow="visible" fill-rule="evenodd" clip-rule="evenodd" fill="#ECDABE"/>
	<clipPath id="SVGID_6_">
		<use xlink:href="#SVGID_5_"  overflow="visible"/>
	</clipPath>
</g>
<g>
	<defs>
		<path id="SVGID_7_" d="M50.7,86.9c15.5,0,28.1,8.3,28.1,18.4c0,10.2-12.6,18.4-28.1,18.4c-15.5,0-28.1-8.3-28.1-18.4
			C22.6,95.2,35.1,86.9,50.7,86.9L50.7,86.9z"/>
	</defs>
	<use xlink:href="#SVGID_7_"  overflow="visible" fill-rule="evenodd" clip-rule="evenodd" fill="#A0CAB5"/>
	<clipPath id="SVGID_8_">
		<use xlink:href="#SVGID_7_"  overflow="visible"/>
	</clipPath>
</g>
<g>
	<defs>
		<path id="SVGID_9_" d="M25.2,93.5c7.2,0,13,5.9,13,13.2c0,7.3-5.8,13.2-13,13.2c-7.2,0-13-5.9-13-13.2
			C12.1,99.4,18,93.5,25.2,93.5L25.2,93.5z"/>
	</defs>
	<use xlink:href="#SVGID_9_"  overflow="visible" fill-rule="evenodd" clip-rule="evenodd" fill="#ECDABE"/>
	<clipPath id="SVGID_10_">
		<use xlink:href="#SVGID_9_"  overflow="visible"/>
	</clipPath>
</g>
<g>
	<defs>
		<path id="SVGID_11_" d="M21.9,115.9h-2c0,0,2-1.9,2-3.9c0-1.9-2-4-2-4h2c0,0,2,1.9,2,4C23.9,113.8,21.9,115.9,21.9,115.9
			L21.9,115.9z M21.9,106.6h-2c0,0,2-1.9,2-3.9c0-1.9-2-3.9-2-3.9h2c0,0,2,1.9,2,3.9C23.9,104.5,21.9,106.6,21.9,106.6L21.9,106.6z
			 M31,110.6c-1.8,0-3.3-1.5-3.3-3.3c0-1.8,1.5-3.3,3.3-3.3c1.8,0,3.3,1.5,3.3,3.3C34.3,109.1,32.9,110.6,31,110.6L31,110.6z"/>
	</defs>
	<use xlink:href="#SVGID_11_"  overflow="visible" fill="#624037"/>
	<clipPath id="SVGID_12_">
		<use xlink:href="#SVGID_11_"  overflow="visible"/>
	</clipPath>
</g>
<g>
	<defs>
		<path id="SVGID_13_" d="M53.3,42.1c-2.5,0-4.9,0.4-6.9,1.1c0.7-2.2,3-3.7,5.6-3.7c2.3,0,4.3,1.2,5.3,3
			C56,42.3,54.7,42.1,53.3,42.1L53.3,42.1z M52.6,52.7v4c0,0-4.5,3.9-9.1,3.9c-4.5,0-9.1-3.9-9.1-3.9v-4c0,0,5.4,4,10.5,4
			C48.7,56.6,52.6,52.7,52.6,52.7L52.6,52.7z M30.7,43.2c0.7-2.2,3-3.7,5.6-3.7c2.3,0,4.3,1.2,5.3,3c-1.3-0.2-2.6-0.3-4-0.3
			C35.1,42.1,32.7,42.5,30.7,43.2L30.7,43.2z"/>
	</defs>
	<use xlink:href="#SVGID_13_"  overflow="visible" fill-rule="evenodd" clip-rule="evenodd" fill="#624037"/>
	<clipPath id="SVGID_14_">
		<use xlink:href="#SVGID_13_"  overflow="visible"/>
	</clipPath>
</g>
<g>
	<defs>
		<path id="SVGID_15_" d="M143.2,1.5c0,0-34-18.2-44.4,95.9h83.6C182.4,97.4,176.8-14.2,143.2,1.5L143.2,1.5z"/>
	</defs>
	<use xlink:href="#SVGID_15_"  overflow="visible" fill-rule="evenodd" clip-rule="evenodd" fill="#4E4743"/>
	<clipPath id="SVGID_16_">
		<use xlink:href="#SVGID_15_"  overflow="visible"/>
	</clipPath>
</g>
<g>
	<defs>
		<path id="SVGID_17_" d="M141.9,136.9c-22.3,1.4-35.3-10.5-35.3-10.5C81.9,101.5,121,61.9,121,61.9c6.2-7.1,23.5-3.9,23.5-3.9
			L141.9,136.9L141.9,136.9z M177,126.2c0,0-14.7,12-40,10.6l-3-79.5c0,0,19.6-3.2,26.7,4C160.7,61.3,205,101.1,177,126.2L177,126.2
			z"/>
	</defs>
	<use xlink:href="#SVGID_17_"  overflow="visible" fill="#EBBEC8"/>
	<clipPath id="SVGID_18_">
		<use xlink:href="#SVGID_17_"  overflow="visible"/>
	</clipPath>
</g>
<g>
	<defs>
		<path id="SVGID_19_" d="M162.8,32.9l2.1-0.9c0.3,1.9,0.5,3.9,0.5,6.1c0,17.5-10.2,31.6-22.9,31.6c-12.6,0-22.9-14.1-22.9-31.6
			c0-2,0.1-3.9,0.4-5.6l0.9,0.4c10.9,0,18.3-15.1,20.3-19.7c0.2,0,0.4,0,0.6,0c0.6,0,1.2,0,1.8,0.1C145.5,17.9,152,32.9,162.8,32.9
			L162.8,32.9z"/>
	</defs>
	<use xlink:href="#SVGID_19_"  overflow="visible" fill-rule="evenodd" clip-rule="evenodd" fill="#CDBBA0"/>
	<clipPath id="SVGID_20_">
		<use xlink:href="#SVGID_19_"  overflow="visible"/>
	</clipPath>
</g>
<g>
	<defs>
		<path id="SVGID_21_" d="M149.1,86.9c15.5,0,28.1,8.3,28.1,18.4c0,10.2-12.6,18.4-28.1,18.4c-15.5,0-28.1-8.3-28.1-18.4
			C121,95.2,133.6,86.9,149.1,86.9L149.1,86.9z"/>
	</defs>
	<use xlink:href="#SVGID_21_"  overflow="visible" fill-rule="evenodd" clip-rule="evenodd" fill="#A0BECA"/>
	<clipPath id="SVGID_22_">
		<use xlink:href="#SVGID_21_"  overflow="visible"/>
	</clipPath>
</g>
<g>
	<defs>
		<path id="SVGID_23_" d="M123.6,93.5c7.2,0,13.1,5.9,13.1,13.2c0,7.3-5.8,13.2-13.1,13.2c-7.2,0-13.1-5.9-13.1-13.2
			C110.5,99.4,116.4,93.5,123.6,93.5L123.6,93.5z"/>
	</defs>
	<use xlink:href="#SVGID_23_"  overflow="visible" fill-rule="evenodd" clip-rule="evenodd" fill="#CDBBA0"/>
	<clipPath id="SVGID_24_">
		<use xlink:href="#SVGID_23_"  overflow="visible"/>
	</clipPath>
</g>
<g>
	<defs>
		<path id="SVGID_25_" d="M120.3,115.9h-2c0,0,2-1.9,2-3.9c0-1.9-2-4-2-4h2c0,0,2,1.9,2,4C122.3,113.8,120.3,115.9,120.3,115.9
			L120.3,115.9z M120.3,106.6h-2c0,0,2-1.9,2-3.9c0-1.9-2-3.9-2-3.9h2c0,0,2,1.9,2,3.9C122.3,104.5,120.3,106.6,120.3,106.6
			L120.3,106.6z M129.5,110.6c-1.8,0-3.3-1.5-3.3-3.3c0-1.8,1.5-3.3,3.3-3.3c1.8,0,3.3,1.5,3.3,3.3
			C132.8,109.1,131.3,110.6,129.5,110.6L129.5,110.6z"/>
	</defs>
	<use xlink:href="#SVGID_25_"  overflow="visible" fill="#57342D"/>
	<clipPath id="SVGID_26_">
		<use xlink:href="#SVGID_25_"  overflow="visible"/>
	</clipPath>
</g>
<g>
	<defs>
		<path id="SVGID_27_" d="M151.7,42.1c-2.5,0-4.9,0.4-6.9,1.1c0.7-2.2,3-3.7,5.6-3.7c2.3,0,4.4,1.2,5.3,3
			C154.4,42.3,153.1,42.1,151.7,42.1L151.7,42.1z M151,52.7v4c0,0-4.5,3.9-9.1,3.9c-4.5,0-9.1-3.9-9.1-3.9v-4c0,0,5.4,4,10.5,4
			C147.1,56.6,151,52.7,151,52.7L151,52.7z M129.1,43.2c0.7-2.2,3-3.7,5.6-3.7c2.3,0,4.3,1.2,5.3,3c-1.3-0.2-2.6-0.3-4-0.3
			C133.5,42.1,131.1,42.5,129.1,43.2L129.1,43.2z"/>
	</defs>
	<use xlink:href="#SVGID_27_"  overflow="visible" fill-rule="evenodd" clip-rule="evenodd" fill="#57342D"/>
	<clipPath id="SVGID_28_">
		<use xlink:href="#SVGID_27_"  overflow="visible"/>
	</clipPath>
</g>
<g>
	<defs>
		<path id="SVGID_29_" d="M237.3,1.5c0,0-34-18.2-44.4,95.9h83.6C276.5,97.4,270.9-14.2,237.3,1.5L237.3,1.5z"/>
	</defs>
	<use xlink:href="#SVGID_29_"  overflow="visible" fill-rule="evenodd" clip-rule="evenodd" fill="#E2A41E"/>
	<clipPath id="SVGID_30_">
		<use xlink:href="#SVGID_29_"  overflow="visible"/>
	</clipPath>
</g>
<g>
	<defs>
		<path id="SVGID_31_" d="M271.1,126.2c0,0-12.9,10.5-35.1,10.7l0,0c-22.3,1.4-35.3-10.5-35.3-10.5c-24.7-24.9,14.4-64.5,14.4-64.5
			c3-3.4,8.4-4.4,13.4-4.6c2.4-0.4,19.8-2.6,26.4,4C254.8,61.3,299.1,101.1,271.1,126.2L271.1,126.2z"/>
	</defs>
	<use xlink:href="#SVGID_31_"  overflow="visible" fill-rule="evenodd" clip-rule="evenodd" fill="#C1EBBE"/>
	<clipPath id="SVGID_32_">
		<use xlink:href="#SVGID_31_"  overflow="visible"/>
	</clipPath>
</g>
<g>
	<defs>
		<path id="SVGID_33_" d="M256.9,32.9L259,32c0.3,1.9,0.5,3.9,0.5,6.1c0,17.5-10.2,31.6-22.9,31.6c-12.6,0-22.9-14.1-22.9-31.6
			c0-2,0.1-3.9,0.4-5.6l0.9,0.4c10.9,0,18.3-15.1,20.3-19.7c0.2,0,0.4,0,0.6,0c0.6,0,1.2,0,1.8,0.1
			C239.6,17.9,246.1,32.9,256.9,32.9L256.9,32.9z"/>
	</defs>
	<use xlink:href="#SVGID_33_"  overflow="visible" fill-rule="evenodd" clip-rule="evenodd" fill="#FAEFDE"/>
	<clipPath id="SVGID_34_">
		<use xlink:href="#SVGID_33_"  overflow="visible"/>
	</clipPath>
</g>
<g>
	<defs>
		<path id="SVGID_35_" d="M243.2,86.9c15.5,0,28.1,8.3,28.1,18.4c0,10.2-12.6,18.4-28.1,18.4c-15.5,0-28.1-8.3-28.1-18.4
			C215.1,95.2,227.7,86.9,243.2,86.9L243.2,86.9z"/>
	</defs>
	<use xlink:href="#SVGID_35_"  overflow="visible" fill-rule="evenodd" clip-rule="evenodd" fill="#BDA0CA"/>
	<clipPath id="SVGID_36_">
		<use xlink:href="#SVGID_35_"  overflow="visible"/>
	</clipPath>
</g>
<g>
	<defs>
		<path id="SVGID_37_" d="M217.7,93.5c7.2,0,13,5.9,13,13.2c0,7.3-5.8,13.2-13,13.2c-7.2,0-13-5.9-13-13.2
			C204.7,99.4,210.5,93.5,217.7,93.5L217.7,93.5z"/>
	</defs>
	<clipPath id="SVGID_38_">
		<use xlink:href="#SVGID_37_"  overflow="visible"/>
	</clipPath>
	<g clip-path="url(#SVGID_38_)">
		<image overflow="visible" width="339" height="179" xlink:href="EE4D9D11.jpg"  transform="matrix(1 0 0 1 -45.764 -28.9773)">
		</image>
	</g>
</g>
<g>
	<defs>
		<path id="SVGID_39_" d="M223.6,110.6c-1.8,0-3.3-1.5-3.3-3.3c0-1.8,1.5-3.3,3.3-3.3c1.8,0,3.3,1.5,3.3,3.3
			C226.9,109.1,225.4,110.6,223.6,110.6L223.6,110.6z M214.5,115.9h-2c0,0,2-1.9,2-3.9c0-1.9-2-4-2-4h2c0,0,2,1.9,2,4
			C216.4,113.8,214.5,115.9,214.5,115.9L214.5,115.9z M214.5,106.6h-2c0,0,2-1.9,2-3.9c0-1.9-2-3.9-2-3.9h2c0,0,2,1.9,2,3.9
			C216.4,104.5,214.5,106.6,214.5,106.6L214.5,106.6z"/>
	</defs>
	<use xlink:href="#SVGID_39_"  overflow="visible" fill-rule="evenodd" clip-rule="evenodd" fill="#57342D"/>
	<clipPath id="SVGID_40_">
		<use xlink:href="#SVGID_39_"  overflow="visible"/>
	</clipPath>
</g>
<g>
	<defs>
		<path id="SVGID_41_" d="M245.8,42.1c-2.5,0-4.9,0.4-7,1.1c0.7-2.2,3-3.8,5.6-3.8c2.3,0,4.3,1.2,5.3,3
			C248.5,42.3,247.2,42.1,245.8,42.1L245.8,42.1z M245.2,52.7v4c0,0-4.5,3.9-9.1,3.9c-4.5,0-9.1-3.9-9.1-3.9v-4c0,0,5.4,4,10.4,4
			C241.2,56.6,245.2,52.7,245.2,52.7L245.2,52.7z M223.2,43.2c0.7-2.2,3-3.7,5.6-3.7c2.3,0,4.3,1.2,5.3,3c-1.3-0.2-2.6-0.3-4-0.3
			C227.6,42.1,225.2,42.5,223.2,43.2L223.2,43.2z"/>
	</defs>
	<use xlink:href="#SVGID_41_"  overflow="visible" fill-rule="evenodd" clip-rule="evenodd" fill="#57342D"/>
	<clipPath id="SVGID_42_">
		<use xlink:href="#SVGID_41_"  overflow="visible"/>
	</clipPath>
</g>
</svg>
