<?xml version="1.0" encoding="utf-8"?>
<!-- Generator: Adobe Illustrator 18.1.1, SVG Export Plug-In . SVG Version: 6.00 Build 0)  -->
<svg version="1.1" id="Camada_1" xmlns="http://www.w3.org/2000/svg" xmlns:xlink="http://www.w3.org/1999/xlink" x="0px" y="0px"
	 viewBox="0 0 135.5 197" enable-background="new 0 0 135.5 197" xml:space="preserve">
<g>
	<defs>
		<path id="SVGID_1_" d="M30.6,168.6l-3.5,15.3c0,0,34.5,29.1,79.4,0.7l-3.5-15.3C103,169.3,71.3,185.2,30.6,168.6L30.6,168.6z"/>
	</defs>
	<use xlink:href="#SVGID_1_"  overflow="visible" fill-rule="evenodd" clip-rule="evenodd" fill="#3A3A38"/>
	<clipPath id="SVGID_2_">
		<use xlink:href="#SVGID_1_"  overflow="visible"/>
	</clipPath>
</g>
<g>
	<defs>
		<path id="SVGID_3_" d="M67.5,43c37.6,0,68,30.6,68,68.3c0,37.7-30.4,68.3-68,68.3c-37.6,0-68-30.6-68-68.3
			C-0.5,73.6,29.9,43,67.5,43L67.5,43z"/>
	</defs>
	<use xlink:href="#SVGID_3_"  overflow="visible" fill-rule="evenodd" clip-rule="evenodd" fill="#D1DEE0"/>
	<clipPath id="SVGID_4_">
		<use xlink:href="#SVGID_3_"  overflow="visible"/>
	</clipPath>
</g>
<g>
	<defs>
		<path id="SVGID_5_" d="M67.5,179.7c-21.3,0-40.3-9.9-52.8-25.3c11.8,8.9,26.7,14.2,42.8,14.2c38.5,0,69.7-30.1,69.7-67.3
			c0-15.3-5.3-29.4-14.2-40.7c13.8,12.5,22.5,30.6,22.5,50.8C135.5,149.1,105,179.7,67.5,179.7L67.5,179.7z"/>
	</defs>
	<use xlink:href="#SVGID_5_"  overflow="visible" fill-rule="evenodd" clip-rule="evenodd" fill="#BFC9CE"/>
	<clipPath id="SVGID_6_">
		<use xlink:href="#SVGID_5_"  overflow="visible"/>
	</clipPath>
</g>
<g>
	<defs>
		<path id="SVGID_7_" d="M31.4,60.9c11.2-9.8,24.6-12.8,29.9-6.7c5.3,6.1-5.6,8-16.8,17.7C33.3,81.8,26,95.8,20.7,89.7
			C15.4,83.6,20.2,70.7,31.4,60.9L31.4,60.9z"/>
	</defs>
	<use xlink:href="#SVGID_7_"  overflow="visible" fill-rule="evenodd" clip-rule="evenodd" fill="#D8E2E4"/>
	<clipPath id="SVGID_8_">
		<use xlink:href="#SVGID_7_"  overflow="visible"/>
	</clipPath>
</g>
<g>
	<defs>
		<path id="SVGID_9_" d="M19.1,47c0,0,0.8-9.8-15.7-15.5c0,0,15,0.7,15.7-15.5c0,0,0.6,15.7,16.3,16.2C35.5,32.2,20.2,32.5,19.1,47
			L19.1,47z M37.7,24c0,0,0.6-7.6-12.2-12c0,0,11.7,0.6,12.2-12c0,0,0.5,12.2,12.8,12.5C50.5,12.5,38.5,12.8,37.7,24L37.7,24z"/>
	</defs>
	<use xlink:href="#SVGID_9_"  overflow="visible" fill="#D2D2D2"/>
	<clipPath id="SVGID_10_">
		<use xlink:href="#SVGID_9_"  overflow="visible"/>
	</clipPath>
</g>
</svg>
