<?xml version="1.0" encoding="utf-8"?>
<!-- Generator: Adobe Illustrator 19.0.1, SVG Export Plug-In . SVG Version: 6.00 Build 0)  -->
<svg version="1.1" id="Layer_1" xmlns="http://www.w3.org/2000/svg" xmlns:xlink="http://www.w3.org/1999/xlink" x="0px" y="0px"
	 viewBox="0 0 511.5 167.3" style="enable-background:new 0 0 511.5 167.3;" xml:space="preserve">
<style type="text/css">
	.st0{fill:#AEADB3;}
	.st1{fill:#FFFFFF;}
	.st2{fill:#010002;}
	.st3{fill:#B38A47;}
	.st4{fill:#30609F;}
</style>
<g>
	<path class="st2" d="M511.5,144.7c0,12.5-10.1,22.6-22.6,22.6H22.6C10.1,167.3,0,157.2,0,144.7V22.6C0,10.1,10.1,0,22.6,0h466.3
		c12.5,0,22.6,10.1,22.6,22.6V144.7z"/>
	<path class="st1" d="M88.3,28.6H46.7c-5,0-9,4-9,9V130c0,5,4,9,9,9h41.7c5,0,9-4,9-9V37.7C97.4,32.7,93.3,28.6,88.3,28.6z
		 M67.5,132.4c-3.3,0-6-2.7-6-6c0-3.3,2.7-6,6-6c3.3,0,6,2.7,6,6C73.5,129.7,70.8,132.4,67.5,132.4z M90.3,117.4H44.7V49.3h45.5
		V117.4z"/>
	<g>
		<path class="st1" d="M146.5,69.3L125,132.4h9.8l6.4-19.4H162l6.6,19.4h10.1l-21.5-63.1H146.5z M151.6,79.6
			c0.7,2.8,1.5,5.7,2.5,8.9l5.8,16.7h-16.5l5.7-16.9C150,85.7,150.8,82.7,151.6,79.6z"/>
		<path class="st1" d="M206.5,85.6c-6.5,0-11.7,2.5-15.2,7.3l-0.4-6.3h-8.7l0.1,0.8c0.3,3.9,0.4,8.2,0.4,14.4v48.7h9.6v-22.7
			c3,3.5,7.7,5.6,13.1,5.6c5.6,0,10.7-2.2,14.5-6.2c4.2-4.4,6.4-10.8,6.4-18.4c0-6.7-1.9-12.5-5.6-16.8
			C217,87.9,212,85.6,206.5,85.6z M204.1,93.5c8.5,0,12.3,7.9,12.3,15.7c0,10.1-4.9,16.3-12.7,16.3c-5.3,0-10-3.6-11.3-8.9
			c-0.2-0.8-0.3-1.9-0.3-3.1v-7.7c0-0.7,0.2-1.5,0.3-2.4c0-0.3,0.1-0.5,0.1-0.8C194,97.3,198.7,93.5,204.1,93.5z"/>
		<path class="st1" d="M255.7,85.6c-6.5,0-11.7,2.5-15.2,7.3l-0.4-6.3h-8.7l0,0.8c0.3,3.9,0.4,8.2,0.4,14.4v48.7h9.6v-22.7
			c3,3.5,7.7,5.6,13.1,5.6c5.6,0,10.7-2.2,14.5-6.2c4.2-4.4,6.4-10.8,6.4-18.4c0-6.7-1.9-12.5-5.6-16.8
			C266.2,87.9,261.2,85.6,255.7,85.6z M253.3,93.5c8.5,0,12.3,7.9,12.3,15.7c0,10.1-4.9,16.3-12.7,16.3c-5.3,0-10-3.6-11.3-8.9
			c-0.2-0.8-0.3-1.9-0.3-3.1v-7.7c0-0.7,0.2-1.5,0.3-2.4c0-0.3,0.1-0.5,0.1-0.8C243.2,97.3,247.9,93.5,253.3,93.5z"/>
		<path class="st1" d="M317.3,96c-8.9-3.5-11.8-6.2-11.8-11.2c0-4.2,3.4-8.5,10.9-8.5c6.2,0,10.2,2.2,11.2,2.8l0.8,0.5l2.7-8
			l-0.5-0.3c-1.6-0.9-6.2-3.1-13.9-3.1c-12.2,0-20.7,7.2-20.7,17.5c0,8.3,5.3,14.1,16.8,18.3c8.1,3,11.1,6.1,11.1,11.5
			c0,6-4.7,9.8-12.1,9.8c-4.9,0-9.9-1.4-13.8-3.9l-0.8-0.5l-2.6,8.2l0.5,0.3c3.6,2.4,10.4,4.2,16.1,4.2c16.4,0,22.2-10,22.2-18.6
			C333.4,106,328.8,100.5,317.3,96z"/>
		<path class="st1" d="M350.6,75.7l-9.4,2.9v7.9h-6.9v7.6h6.9v23.4c0,5.7,1.1,9.6,3.3,12.1c2.1,2.3,5.4,3.6,9.2,3.6
			c3.6,0,6.2-0.7,7.4-1.1l0.5-0.2l-0.5-7.6l-0.9,0.3c-1.2,0.4-2.4,0.5-4.4,0.5c-3.7,0-5.3-2.3-5.3-7.8V94.3h11.5v-7.6h-11.5V75.7z"
			/>
		<path class="st1" d="M385.8,85.6c-13.4,0-22.7,10-22.7,24.3c0,13.9,9,23.5,22,23.5h0.1c10.9,0,22.7-7.6,22.7-24.3
			c0-6.8-2.1-12.6-6.1-16.9C397.8,87.9,392.3,85.6,385.8,85.6z M385.5,93.2c8.6,0,12.5,8.4,12.5,16.2c0,9.6-5.3,16.5-12.7,16.5h-0.1
			c-7.2,0-12.5-6.8-12.5-16.3C372.8,101.4,376.7,93.2,385.5,93.2z"/>
		<path class="st1" d="M437.1,86.1l-0.6-0.1c-0.8-0.2-1.5-0.3-2.4-0.3c-5,0-9.5,2.9-12,7.7l-0.3-6.7h-8.6l0.1,0.8
			c0.3,3.8,0.4,8,0.4,13.8l-0.1,31.2h9.6V108c0-1.3,0.1-2.6,0.3-3.7c1.1-5.8,5-9.6,10.1-9.6c1,0,1.7,0.1,2.6,0.2l1,0.1V86.1z"/>
		<path class="st1" d="M458.6,85.5c-12.7,0-21.6,10.2-21.6,24.7c0,14,8.8,23.1,22.5,23.1c7.2,0,12.2-1.6,15.1-2.9l0.6-0.3l-1.8-7.1
			l-0.8,0.3c-2.6,1.1-6.1,2.1-12,2.1c-4.2,0-13.7-1.4-14.3-13.9l30.8,0.1l0.1-0.6c0.2-1,0.3-2.3,0.3-4
			C477.6,97.2,472.6,85.5,458.6,85.5z M458,92.8c2.9,0,5.3,0.9,7,2.7c2.7,2.8,3.2,6.9,3.3,8.9h-21.8C447.4,98.8,450.8,92.8,458,92.8
			z"/>
	</g>
</g>
</svg>
